<svg width="61" height="60" viewBox="0 0 61 60" fill="none" xmlns="http://www.w3.org/2000/svg">
<path d="M60.5 30C60.5 46.2846 47.0764 59.5 30.5 59.5C13.9236 59.5 0.5 46.2846 0.5 30C0.5 13.7154 13.9236 0.5 30.5 0.5C47.0764 0.5 60.5 13.7154 60.5 30Z" fill="white" stroke="#6E6E6D"/>
<path d="M43.4082 23.783L43.5338 24.0977H43.8725H48.2802C48.5289 24.0977 48.7136 24.3325 48.6527 24.5766L48.211 26.3468L48.2109 26.3472C48.1683 26.5186 48.0148 26.6384 47.8392 26.6384H46.3616H45.0318L46.0322 27.5145C46.92 28.2921 47.4865 29.416 47.4865 30.6791V34.2199C47.4865 35.2787 47.0836 36.2374 46.4319 36.984L46.3085 37.1253V37.3129V41.3013C46.3085 42.3296 45.4765 43.1618 44.4527 43.1618H42.0968C41.073 43.1618 40.2409 42.3296 40.2409 41.3013V38.9409V38.4409H39.7409H20.8939H20.3939V38.9409V41.3013C20.3939 42.3296 19.5619 43.1618 18.5381 43.1618H16.1822C15.1584 43.1618 14.3263 42.3296 14.3263 41.3013V37.3129V37.1254L14.2031 36.9842C13.5511 36.2367 13.1484 35.2779 13.1484 34.2199V30.6791C13.1484 29.4161 13.7148 28.2921 14.6032 27.5147L15.6045 26.6384H14.2739H12.7964C12.6207 26.6384 12.4672 26.5186 12.4246 26.3472L12.4245 26.3468L11.9828 24.5765L11.9827 24.576C11.9217 24.3324 12.1059 24.0977 12.3546 24.0977H16.7616H17.1003L17.2259 23.783L18.451 20.7144C18.451 20.7144 18.451 20.7144 18.451 20.7144C19.635 17.749 22.4565 15.8359 25.6425 15.8359H34.9924C38.1791 15.8359 40.9998 17.749 42.1831 20.7143L42.1831 20.7144L43.4082 23.783ZM11.4977 24.6975L11.9394 26.4679L11.4977 24.6975ZM21.8968 22.097L21.8968 22.0971L20.4296 25.7728L20.156 26.4581H20.8939H39.7409H40.4789L40.2053 25.7728L38.738 22.0971L38.738 22.097C38.1256 20.5634 36.6425 19.5569 34.9924 19.5569H25.6425C23.9923 19.5569 22.5092 20.5634 21.8968 22.097ZM15.6822 31.852C15.6822 32.6717 15.9579 33.3936 16.4767 33.9118C16.9954 34.4299 17.7178 34.7051 18.5381 34.7051C18.6881 34.7051 18.8548 34.7084 19.0319 34.7118C19.6238 34.7233 20.3313 34.737 20.9171 34.6395C21.3048 34.575 21.7124 34.4529 22.0306 34.1986C22.3744 33.9239 22.5719 33.5281 22.5719 33.0286C22.5719 32.5589 22.3989 32.0761 22.1554 31.6384C21.9086 31.1945 21.5693 30.761 21.1884 30.3805C20.8075 30.0001 20.3734 29.6612 19.9291 29.4147C19.491 29.1715 19.0079 28.9989 18.5381 28.9989C17.7178 28.9989 16.9954 29.2741 16.4767 29.7922C15.9579 30.3104 15.6822 31.0323 15.6822 31.852ZM38.063 33.0286C38.063 33.5281 38.2604 33.9239 38.6042 34.1986C38.9224 34.4529 39.33 34.575 39.7177 34.6395C40.3036 34.737 41.011 34.7233 41.603 34.7118C41.78 34.7084 41.9467 34.7051 42.0968 34.7051C42.917 34.7051 43.6394 34.4299 44.1581 33.9118C44.6769 33.3936 44.9527 32.6717 44.9527 31.852C44.9527 31.0323 44.6769 30.3104 44.1581 29.7922C43.6394 29.2741 42.917 28.9989 42.0968 28.9989C41.6269 28.9989 41.1438 29.1715 40.7057 29.4147C40.2614 29.6612 39.8274 30.0001 39.4465 30.3805C39.0656 30.761 38.7263 31.1945 38.4794 31.6384C38.236 32.0761 38.063 32.5589 38.063 33.0286Z" stroke="#6E6E6D"/>
</svg>
