<svg width="61" height="60" viewBox="0 0 61 60" fill="none" xmlns="http://www.w3.org/2000/svg">
<ellipse cx="30.5" cy="30" rx="30.5" ry="30" fill="#6E6E6D"/>
<path d="M47.8095 23.2617H43.4018L42.1768 20.1931C40.9178 17.0381 37.9134 15 34.5217 15H25.1718C21.7808 15 18.7756 17.0381 17.5159 20.1931L16.2909 23.2617H11.8839C11.3089 23.2617 10.8871 23.8032 11.027 24.3616L11.4687 26.1319C11.5666 26.5258 11.92 26.8025 12.3256 26.8025H13.8032C12.8145 27.6677 12.1777 28.9254 12.1777 30.3432V33.8839C12.1777 35.073 12.6312 36.1463 13.3556 36.9769V40.9654C13.3556 42.2688 14.4106 43.3259 15.7115 43.3259H18.0674C19.3682 43.3259 20.4232 42.2688 20.4232 40.9654V38.6049H39.2702V40.9654C39.2702 42.2688 40.3252 43.3259 41.6261 43.3259H43.982C45.2828 43.3259 46.3378 42.2688 46.3378 40.9654V36.9769C47.0623 36.1471 47.5158 35.0738 47.5158 33.8839V30.3432C47.5158 28.9254 46.8789 27.6677 45.8909 26.8025H47.3685C47.7742 26.8025 48.1276 26.5258 48.2255 26.1319L48.6672 24.3616C48.8063 23.8032 48.3845 23.2617 47.8095 23.2617ZM21.8905 21.9465C22.4272 20.6025 23.7266 19.721 25.1718 19.721H34.5217C35.9668 19.721 37.2662 20.6025 37.8029 21.9465L39.2702 25.6222H20.4232L21.8905 21.9465ZM18.0674 33.8692C16.6538 33.8692 15.7115 32.9279 15.7115 31.5161C15.7115 30.1042 16.6538 29.1629 18.0674 29.1629C19.4809 29.1629 21.6012 31.2808 21.6012 32.6926C21.6012 34.1045 19.4809 33.8692 18.0674 33.8692ZM41.6261 33.8692C40.2126 33.8692 38.0923 34.1045 38.0923 32.6926C38.0923 31.2808 40.2126 29.1629 41.6261 29.1629C43.0396 29.1629 43.982 30.1042 43.982 31.5161C43.982 32.9279 43.0396 33.8692 41.6261 33.8692Z" fill="white"/>
</svg>
