<svg width="60" height="60" viewBox="0 0 60 60" fill="none" xmlns="http://www.w3.org/2000/svg">
<circle cx="30" cy="30" r="29.5" fill="white" stroke="#6E6E6D"/>
<path d="M15.7709 34.9483L15.7708 34.9483L11.2228 30.0677C10.9876 29.7874 11.0747 29.359 11.4061 29.1932L13.8049 27.993C13.8049 27.993 13.8049 27.993 13.805 27.993C13.8843 27.9533 13.9724 27.9324 14.062 27.9323C14.1517 27.9322 14.2399 27.9529 14.3194 27.9924L14.3194 27.9924L18.6443 30.1412L18.8675 30.2522L19.0904 30.1406L25.26 27.0544L26.0612 26.6536L25.2995 26.1821L16.0282 20.4435C15.8179 20.1646 15.9073 19.7549 16.2305 19.5934L16.2307 19.5933L20.161 17.6271L19.9373 17.18L20.161 17.6271C20.2512 17.582 20.3524 17.5613 20.454 17.5675C20.5557 17.5737 20.6533 17.6065 20.7367 17.6619L20.7853 17.6941L20.8399 17.7143L33.9131 22.5493L34.1164 22.6245L34.3102 22.5275L40.1987 19.5822C40.1988 19.5822 40.1988 19.5821 40.1989 19.5821C41.7367 18.8135 43.4233 18.3787 45.1007 18.4861C47.0319 18.61 47.8547 19.205 48.1679 19.8289L48.1682 19.8295C48.4821 20.4526 48.4693 21.4648 47.4147 23.0817C46.4984 24.4864 45.1414 25.574 43.6035 26.3433L26.2108 35.0429L26.2106 35.043C25.7311 35.2832 25.2006 35.4089 24.662 35.4096L16.8589 35.4202C16.8588 35.4202 16.8588 35.4202 16.8587 35.4202C16.4456 35.4206 16.0513 35.2493 15.7709 34.9483ZM11.5464 42.0777H47.8908C48.15 42.0777 48.3473 42.2825 48.3473 42.5204V44.4059C48.3473 44.6438 48.15 44.8486 47.8908 44.8486H11.5464C11.2873 44.8486 11.09 44.6438 11.09 44.4059V42.5204C11.09 42.2825 11.2873 42.0777 11.5464 42.0777Z" fill="white" stroke="#6E6E6D"/>
</svg>
