<svg width="60" height="60" viewBox="0 0 60 60" fill="none" xmlns="http://www.w3.org/2000/svg">
<circle cx="30" cy="30" r="30" fill="#6E6E6D"/>
<path d="M47.8908 39.7115H11.5464C11.018 39.7115 10.59 40.1334 10.59 40.6542V42.5397C10.59 43.0605 11.018 43.4824 11.5464 43.4824H47.8908C48.4193 43.4824 48.8473 43.0605 48.8473 42.5397V40.6542C48.8473 40.1334 48.4193 39.7115 47.8908 39.7115ZM15.405 33.4229C15.7804 33.8259 16.3077 34.0546 16.8594 34.054L24.6627 34.0434C25.2785 34.0426 25.8855 33.8988 26.4345 33.6239L43.8272 24.9243C45.4256 24.1247 46.8585 22.9834 47.8335 21.4886C48.928 19.8106 49.0469 18.5962 48.6147 17.7383C48.1838 16.8799 47.1359 16.2494 45.1327 16.121C43.3484 16.0067 41.5736 16.4698 39.9752 17.2687L34.0865 20.2142L21.0133 15.3791C20.8561 15.2748 20.6735 15.2137 20.4844 15.2022C20.2952 15.1907 20.1063 15.2292 19.9373 15.3137L16.007 17.2799C15.3692 17.5987 15.215 18.4377 15.698 18.9609L25.0363 24.741L18.8667 27.8273L14.5419 25.6784C14.3929 25.6044 14.2283 25.5659 14.0614 25.5661C13.8946 25.5663 13.7301 25.6052 13.5813 25.6796L11.1824 26.8798C10.5583 27.1921 10.3939 28.0064 10.8494 28.5343L15.405 33.4229Z" fill="white"/>
</svg>
