<svg width="61" height="60" viewBox="0 0 61 60" fill="none" xmlns="http://www.w3.org/2000/svg">
<path d="M60.5 30C60.5 46.2846 47.0764 59.5 30.5 59.5C13.9236 59.5 0.5 46.2846 0.5 30C0.5 13.7154 13.9236 0.5 30.5 0.5C47.0764 0.5 60.5 13.7154 60.5 30Z" fill="white" stroke="#6E6E6D"/>
<path fill-rule="evenodd" clip-rule="evenodd" d="M40.788 11.7718C38.8142 10.6322 36.3541 10.7635 34.5128 12.1066L23.4216 20.1969L12.9011 27.8708C10.1969 29.8434 10.4157 33.9456 13.3145 35.6192C14.9483 36.5625 16.959 36.4066 18.427 35.3064C22.1763 32.4965 24.5826 31.2132 27.1326 29.8532L27.1327 29.8532C27.4134 29.7034 27.696 29.5527 27.9822 29.399C28.8571 28.9291 29.9514 28.9765 30.8511 29.4856C31.7271 29.9814 32.1484 30.7406 32.1053 31.5502L31.487 43.1621C31.3936 44.9175 32.2936 46.5768 33.816 47.4557C36.7413 49.1446 40.4367 47.2661 40.7962 43.9075L43.6356 17.3736C43.8781 15.1075 42.7618 12.9114 40.788 11.7718ZM33.0604 20.9528C33.0606 20.9524 33.0637 20.9604 33.0692 20.9781C33.063 20.962 33.0603 20.9532 33.0604 20.9528Z" fill="#E7216A"/>
</svg>
