<svg width="61" height="60" viewBox="0 0 61 60" fill="none" xmlns="http://www.w3.org/2000/svg">
<ellipse cx="30.5" cy="30" rx="30.5" ry="30" fill="#6E6E6D"/>
<path fill-rule="evenodd" clip-rule="evenodd" d="M40.788 12.7718C38.8142 11.6322 36.3541 11.7635 34.5128 13.1066L23.4216 21.1969L12.9011 28.8708C10.1969 30.8434 10.4157 34.9456 13.3145 36.6192C14.9483 37.5625 16.959 37.4066 18.427 36.3064C22.1763 33.4965 24.5826 32.2132 27.1326 30.8532L27.1327 30.8532C27.4134 30.7034 27.696 30.5527 27.9822 30.399C28.8571 29.9291 29.9514 29.9765 30.8511 30.4856C31.7271 30.9814 32.1484 31.7406 32.1053 32.5502L31.487 44.1621C31.3936 45.9175 32.2936 47.5768 33.816 48.4557C36.7413 50.1446 40.4367 48.2661 40.7962 44.9075L43.6356 18.3736C43.8781 16.1075 42.7618 13.9114 40.788 12.7718ZM33.0604 21.9528C33.0606 21.9524 33.0637 21.9604 33.0692 21.9781C33.063 21.962 33.0603 21.9532 33.0604 21.9528Z" fill="#E7216A"/>
</svg>
