<svg width="31" height="31" viewBox="0 0 31 31" fill="none" xmlns="http://www.w3.org/2000/svg">
<path d="M28.3596 14.6743C27.5429 13.2579 23.0513 6.15045 15.4207 6.38014C8.36435 6.55878 4.28109 12.7602 3.17095 14.6743C3.05896 14.8682 3 15.0883 3 15.3123C3 15.5363 3.05896 15.7563 3.17095 15.9503C3.97485 17.3411 8.27503 24.2444 15.7908 24.2444H16.1098C23.1662 24.0658 27.2622 17.8643 28.3596 15.9503C28.4716 15.7563 28.5305 15.5363 28.5305 15.3123C28.5305 15.0883 28.4716 14.8682 28.3596 14.6743ZM16.046 21.6924C10.5463 21.82 6.96073 17.1115 5.83783 15.3123C7.11385 13.2579 10.4443 9.05978 15.5483 8.93218C21.0225 8.79181 24.6208 13.5131 25.7565 15.3123C24.4422 17.3667 21.1501 21.5648 16.046 21.6924Z" fill="#69C6DE"/>
<path d="M15.7651 10.8463C14.8818 10.8463 14.0184 11.1082 13.2839 11.599C12.5495 12.0897 11.9771 12.7872 11.639 13.6033C11.301 14.4194 11.2126 15.3173 11.3849 16.1837C11.5572 17.05 11.9826 17.8458 12.6072 18.4704C13.2317 19.095 14.0275 19.5203 14.8939 19.6926C15.7602 19.865 16.6582 19.7765 17.4742 19.4385C18.2903 19.1005 18.9878 18.528 19.4785 17.7936C19.9693 17.0592 20.2312 16.1957 20.2312 15.3124C20.2312 14.1279 19.7607 12.9919 18.9231 12.1544C18.0856 11.3168 16.9496 10.8463 15.7651 10.8463ZM15.7651 17.2264C15.3866 17.2264 15.0165 17.1142 14.7018 16.9038C14.387 16.6935 14.1417 16.3946 13.9968 16.0448C13.8519 15.6951 13.814 15.3103 13.8879 14.939C13.9617 14.5677 14.144 14.2266 14.4117 13.959C14.6794 13.6913 15.0204 13.509 15.3917 13.4351C15.763 13.3613 16.1479 13.3992 16.4976 13.544C16.8474 13.6889 17.1463 13.9342 17.3566 14.249C17.5669 14.5638 17.6792 14.9338 17.6792 15.3124C17.6792 15.82 17.4775 16.3069 17.1186 16.6658C16.7596 17.0248 16.2728 17.2264 15.7651 17.2264Z" fill="#69C6DE"/>
</svg>
