<?xml version="1.0" encoding="utf-8"?>
<!-- Generator: Adobe Illustrator 28.0.0, SVG Export Plug-In . SVG Version: 6.00 Build 0)  -->
<svg version="1.1" id="Camada_1" xmlns="http://www.w3.org/2000/svg" xmlns:xlink="http://www.w3.org/1999/xlink" x="0px" y="0px"
	 viewBox="0 0 6000 3000" style="enable-background:new 0 0 6000 3000;" xml:space="preserve">
<style type="text/css">
	.st0{fill:#69C6DE;}
</style>
<g>
	<g>
		<g>
			<path class="st0" d="M1088.38,1218.13H230.6v-95.65h857.78V1218.13z M230.6,2180.98v-649.22h105.07v72.14h613.16v94.09H335.66
				v483H230.6z"/>
			<path class="st0" d="M2070.03,1218.13h-862.49v-95.65h862.49V1218.13z M2070.03,2180.98h-862.49v-649.22h105.07v72.14h613.16
				v94.09h-613.16v388.9h757.42V2180.98z M1612.13,1004.86h-53.32l48.61-183.48h106.63L1612.13,1004.86z"/>
			<path class="st0" d="M2195.48,2180.98c0-161.52,0-323.05,0-486.13h103.5v72.13h338.72c167.81,0,304.24-120.75,304.24-275.99
				c0-150.54-136.43-272.87-304.24-272.87h-442.22v-95.65h442.22c227.39,0,410.87,164.66,410.87,368.52
				c0,138-86.26,263.45-217.98,329.31c56.46,40.77,92.53,98.8,120.75,158.39c40.77,92.53,87.82,183.47,97.23,202.29h-112.9
				c-23.53-42.34-58.03-109.77-81.55-166.23c-45.47-98.8-89.39-153.69-216.42-152.12h-338.72v318.35H2195.48z"/>
			<path class="st0" d="M3164.59,2180.98V1122.47h106.63v1058.51H3164.59z"/>
			<path class="st0" d="M4187.03,2180.98l-352.84-912.68l-351.26,912.68h-111.35l407.72-1058.51h109.78l409.29,1058.51H4187.03z"/>
			<path class="st0" d="M5284.73,1214.99h-901.7v-94.09h901.7V1214.99z M5284.73,2182.55h-901.7v-95.66l625.7-700.97h136.43
				l-625.7,700.97h765.27V2182.55z"/>
		</g>
		<rect x="1207.95" y="1455.72" class="st0" width="105.09" height="76.13"/>
		<rect x="2194.53" y="1379.5" class="st0" width="104.76" height="323.9"/>
	</g>
	<g>
		<path class="st0" d="M5399.88,1264.56l17.25,62.69c0,0,1.68,14.73,13.04,13.46c11.36-1.26,104.35,0.84,104.35,0.84l-62.69,95.93
			c0,0,10.1,0,28.61-0.84c0,0,13.89-1.26,21.88-10.1c7.99-8.84,87.94-77.84,87.94-77.84s8.42-7.57,17.67-6.73
			c9.26,0.84,123.28,0.84,123.28,0.84s9.68-48.81-56.38-56.8c0,0-11.78-0.84-19.78-0.42c-7.99,0.42-202.39,12.62-202.39,12.62
			s-21.46,3.79-30.29-18.09c0,0-4.21-11.78-8.84-15.57H5399.88z"/>
		<path class="st0" d="M5501.7,1222.91l37.03,48.81c0,0,2.1,6.73,10.94,5.89c8.84-0.84,49.65-3.37,49.65-3.37l-55.12-46.28
			c0,0-7.57-8.42-26.51-6.31L5501.7,1222.91z"/>
	</g>
</g>
</svg>
