<svg width="29" height="29" viewBox="0 0 29 29" fill="none" xmlns="http://www.w3.org/2000/svg">
<path d="M20.8199 5.22532C20.7264 5.22532 20.6328 5.20194 20.551 5.15518C18.3065 3.99787 16.366 3.50689 14.0397 3.50689C11.7251 3.50689 9.52733 4.05632 7.52834 5.15518C7.24778 5.30715 6.89708 5.20194 6.73342 4.92138C6.58145 4.64082 6.68666 4.27843 6.96722 4.12646C9.14156 2.94577 11.5263 2.33789 14.0397 2.33789C16.5297 2.33789 18.704 2.88732 21.0888 4.11477C21.381 4.26674 21.4862 4.61744 21.3342 4.898C21.229 5.10842 21.0303 5.22532 20.8199 5.22532ZM4.09148 11.3626C3.97458 11.3626 3.85768 11.3275 3.75247 11.2574C3.4836 11.0703 3.42515 10.7079 3.61219 10.4391C4.7695 8.80247 6.24244 7.51657 7.99594 6.61643C11.6666 4.72265 16.366 4.71096 20.0483 6.60474C21.8018 7.50488 23.2748 8.77909 24.4321 10.404C24.6191 10.6612 24.5607 11.0353 24.2918 11.2223C24.023 11.4093 23.6606 11.3509 23.4735 11.082C22.4214 9.60908 21.0888 8.45177 19.5106 7.64516C16.1556 5.92672 11.8653 5.92672 8.52199 7.65685C6.93215 8.47515 5.59949 9.64415 4.54739 11.1171C4.45387 11.2807 4.27852 11.3626 4.09148 11.3626ZM11.3977 25.4724C11.2458 25.4724 11.0938 25.414 10.9886 25.2971C9.97155 24.28 9.42212 23.6254 8.63889 22.2109C7.83228 20.773 7.41144 19.0195 7.41144 17.1374C7.41144 13.6655 10.3807 10.8365 14.028 10.8365C17.6753 10.8365 20.6445 13.6655 20.6445 17.1374C20.6445 17.4648 20.3874 17.7219 20.06 17.7219C19.7327 17.7219 19.4755 17.4648 19.4755 17.1374C19.4755 14.3085 17.0323 12.0055 14.028 12.0055C11.0237 12.0055 8.58044 14.3085 8.58044 17.1374C8.58044 18.8208 8.95452 20.3756 9.66761 21.6381C10.4158 22.9825 10.9301 23.5553 11.8303 24.4671C12.0524 24.7009 12.0524 25.0633 11.8303 25.2971C11.7017 25.414 11.5497 25.4724 11.3977 25.4724ZM19.7795 23.3098C18.3884 23.3098 17.1609 22.9591 16.1556 22.2694C14.4138 21.0887 13.3733 19.1715 13.3733 17.1374C13.3733 16.8101 13.6305 16.5529 13.9578 16.5529C14.2852 16.5529 14.5423 16.8101 14.5423 17.1374C14.5423 18.7857 15.384 20.3405 16.8102 21.2991C17.6402 21.8602 18.6105 22.1291 19.7795 22.1291C20.06 22.1291 20.5276 22.094 20.9952 22.0122C21.3109 21.9537 21.6148 22.1641 21.6733 22.4915C21.7317 22.8071 21.5213 23.111 21.194 23.1695C20.5276 23.2981 19.9431 23.3098 19.7795 23.3098ZM17.4298 25.7179C17.383 25.7179 17.3246 25.7062 17.2778 25.6945C15.4191 25.1802 14.2033 24.4905 12.9291 23.2396C11.2925 21.6147 10.3924 19.4521 10.3924 17.1374C10.3924 15.2437 12.0056 13.7006 13.9929 13.7006C15.9802 13.7006 17.5934 15.2437 17.5934 17.1374C17.5934 18.3883 18.6806 19.4053 20.025 19.4053C21.3693 19.4053 22.4565 18.3883 22.4565 17.1374C22.4565 12.7303 18.6572 9.15317 13.9812 9.15317C10.6613 9.15317 7.62186 11.0002 6.25413 13.8642C5.79822 14.8111 5.56442 15.9217 5.56442 17.1374C5.56442 18.0493 5.64625 19.4871 6.34765 21.3575C6.46455 21.6615 6.31258 22.0005 6.00864 22.1057C5.7047 22.2226 5.36569 22.0589 5.26048 21.7667C4.68767 20.2353 4.40711 18.7156 4.40711 17.1374C4.40711 15.7346 4.67598 14.4604 5.20203 13.3499C6.7568 10.0884 10.2054 7.97248 13.9812 7.97248C19.3002 7.97248 23.6255 12.0757 23.6255 17.1258C23.6255 19.0195 22.0123 20.5626 20.025 20.5626C18.0377 20.5626 16.4244 19.0195 16.4244 17.1258C16.4244 15.8749 15.3373 14.8579 13.9929 14.8579C12.6486 14.8579 11.5614 15.8749 11.5614 17.1258C11.5614 19.1247 12.3329 20.9951 13.7474 22.3979C14.858 23.4968 15.9218 24.1047 17.5701 24.5606C17.8857 24.6424 18.061 24.9698 17.9792 25.2737C17.9208 25.5426 17.6753 25.7179 17.4298 25.7179Z" fill="#949494"/>
</svg>
