<svg width="40" height="38" viewBox="0 0 40 38" fill="none" xmlns="http://www.w3.org/2000/svg">
<rect x="39.5" y="37.5" width="39" height="37" rx="9.5" transform="rotate(180 39.5 37.5)" fill="white" stroke="#D9D9D9"/>
<path d="M27.1154 24.5314L27.1154 12.785L28.3757 14.0575C28.5597 14.2419 28.8092 14.3454 29.0693 14.3454C29.3295 14.3454 29.579 14.2419 29.763 14.0575C29.9469 13.8732 30.0503 13.6232 30.0503 13.3626C30.0503 13.1019 29.9469 12.8519 29.763 12.6676L26.8321 9.73095C26.7413 9.63921 26.6333 9.56638 26.5142 9.51669C26.3951 9.46699 26.2675 9.44141 26.1385 9.44141C26.0095 9.44141 25.8818 9.46699 25.7628 9.51669C25.6437 9.56638 25.5357 9.63921 25.4449 9.73095L22.514 12.6676C22.4224 12.7586 22.3497 12.8668 22.3001 12.9861C22.2505 13.1054 22.225 13.2333 22.225 13.3626C22.225 13.4918 22.2505 13.6197 22.3001 13.739C22.3497 13.8583 22.4224 13.9666 22.514 14.0575C22.6048 14.1493 22.7129 14.2221 22.8319 14.2718C22.951 14.3215 23.0787 14.3471 23.2076 14.3471C23.3366 14.3471 23.4643 14.3215 23.5833 14.2718C23.7024 14.2221 23.8104 14.1493 23.9013 14.0575L25.1615 12.785L25.1615 24.5314C25.1654 24.732 25.1298 24.9313 25.0568 25.1181C24.9838 25.3048 24.8748 25.4754 24.736 25.6199C24.5972 25.7644 24.4313 25.8801 24.2478 25.9604C24.0644 26.0407 23.867 26.084 23.6668 26.0878L21.2537 26.0878C20.9946 26.0878 20.7461 26.191 20.5629 26.3745C20.3797 26.5581 20.2768 26.8071 20.2768 27.0667C20.2768 27.3263 20.3797 27.5753 20.5629 27.7589C20.7461 27.9424 20.9946 28.0456 21.2537 28.0456L23.6668 28.0456C24.1235 28.0417 24.575 27.9478 24.9955 27.7691C25.416 27.5904 25.7973 27.3305 26.1175 27.0042C26.4378 26.6779 26.6907 26.2915 26.8619 25.8672C27.0332 25.443 27.1193 24.9891 27.1154 24.5314Z" fill="#6E6E6D"/>
<path d="M18.0396 24.8253C18.2236 24.641 18.3269 24.391 18.3269 24.1303C18.3269 23.8696 18.2236 23.6196 18.0396 23.4353C17.8557 23.251 17.6062 23.1474 17.346 23.1474C17.0858 23.1474 16.8363 23.251 16.6524 23.4353L15.3921 24.7078L15.3921 12.9614C15.3882 12.7609 15.4238 12.5615 15.4968 12.3748C15.5698 12.188 15.6789 12.0175 15.8177 11.8729C15.9565 11.7284 16.1223 11.6127 16.3058 11.5324C16.4892 11.4521 16.6867 11.4088 16.8868 11.405L19.2999 11.405C19.559 11.405 19.8075 11.3019 19.9907 11.1183C20.1739 10.9347 20.2769 10.6857 20.2769 10.4261C20.2769 10.1665 20.1739 9.91754 19.9907 9.73397C19.8075 9.5504 19.559 9.44727 19.2999 9.44727L16.8868 9.44727C16.4301 9.45111 15.9786 9.54505 15.5581 9.72373C15.1376 9.90242 14.7563 10.1623 14.4361 10.4887C14.1159 10.815 13.8629 11.2013 13.6917 11.6256C13.5205 12.0499 13.4343 12.5038 13.4382 12.9614L13.4382 24.7078L12.1779 23.4353C12.0871 23.3435 11.9791 23.2707 11.86 23.221C11.7409 23.1713 11.6133 23.1457 11.4843 23.1457C11.3553 23.1457 11.2276 23.1713 11.1086 23.221C10.9895 23.2707 10.8815 23.3435 10.7907 23.4353C10.6991 23.5263 10.6264 23.6345 10.5768 23.7538C10.5272 23.8731 10.5017 24.0011 10.5017 24.1303C10.5017 24.2595 10.5272 24.3874 10.5768 24.5067C10.6264 24.626 10.6991 24.7343 10.7907 24.8253L13.7215 27.7619C13.8123 27.8536 13.9204 27.9264 14.0394 27.9761C14.1585 28.0258 14.2862 28.0514 14.4151 28.0514C14.5441 28.0514 14.6718 28.0258 14.7909 27.9761C14.9099 27.9264 15.018 27.8536 15.1088 27.7619L18.0396 24.8253Z" fill="#6E6E6D"/>
</svg>
