<svg width="21" height="19" viewBox="0 0 21 19" fill="none" xmlns="http://www.w3.org/2000/svg">
<path d="M1.23889 6.22417L2.61934 2.07371C3.03206 0.833125 4.18545 0 5.49021 0H14.6911C15.9959 0 17.1493 0.833125 17.562 2.07371L18.9425 6.22417C19.669 6.53053 20.1816 7.25041 20.1816 8.08859V13.144C20.1816 13.9053 19.7548 14.5615 19.1332 14.9063C19.1463 14.973 19.1725 15.0337 19.1725 15.1034V17.1883C19.1725 17.7474 18.7215 18.1993 18.1634 18.1993H17.1544C16.5963 18.1993 16.1453 17.7474 16.1453 17.1883V15.1661H4.03611V17.1883C4.03611 17.7474 3.58504 18.1993 3.02701 18.1993H2.01791C1.45988 18.1993 1.00882 17.7474 1.00882 17.1883V15.1034C1.00882 15.0337 1.03506 14.972 1.04817 14.9063C0.426569 14.5615 -0.000278473 13.9053 -0.000278473 13.144V8.08859C-0.000278473 7.25041 0.512344 6.53053 1.23889 6.22417ZM18.1634 13.144V8.08859H2.01791L2.0159 13.144H18.1634ZM14.6911 2.02215H5.49122C5.0563 2.02215 4.67083 2.29918 4.53359 2.71372L3.41753 6.06645H16.7638L15.6488 2.71372C15.5105 2.29918 15.1251 2.02215 14.6911 2.02215Z" fill="#949494"/>
<path d="M15.6402 12.1328C14.8042 12.1328 14.1265 11.4538 14.1265 10.6162C14.1265 9.77862 14.8042 9.09961 15.6402 9.09961C16.4761 9.09961 17.1538 9.77862 17.1538 10.6162C17.1538 11.4538 16.4761 12.1328 15.6402 12.1328Z" fill="#949494"/>
<path d="M4.54056 12.1328C3.70459 12.1328 3.02691 11.4538 3.02691 10.6162C3.02691 9.77862 3.70459 9.09961 4.54056 9.09961C5.37652 9.09961 6.0542 9.77862 6.0542 10.6162C6.0542 11.4538 5.37652 12.1328 4.54056 12.1328Z" fill="#949494"/>
</svg>
