<svg width="21" height="22" viewBox="0 0 21 22" fill="none" xmlns="http://www.w3.org/2000/svg">
<path d="M20.4021 14.5063L21 11.511L13.3707 7.68889V4.443C13.3716 3.74818 13.2196 3.0617 12.9255 2.43247C12.6314 1.80324 12.2024 1.24674 11.6691 0.802598C11.3409 0.52852 10.9272 0.378418 10.5 0.378418C10.0728 0.378418 9.65909 0.52852 9.33094 0.802598C8.79764 1.24674 8.36865 1.80324 8.07452 2.43247C7.78039 3.0617 7.62836 3.74818 7.62926 4.443V7.68889L0 11.511L0.597876 14.5063L7.64864 13.585L7.99564 17.2354L4.75852 18.6253V21.6163H16.2415V18.6253L13.0044 17.2353L13.3514 13.5848L20.4021 14.5063ZM14.8061 19.5737V20.1781H6.19389V19.5737L9.52386 18.1437L9.06463 13.3126V11.9494L1.74231 12.9063L1.62251 12.3061L9.06463 8.57778V4.443C9.06402 3.95908 9.16992 3.48098 9.37478 3.04275C9.57963 2.60452 9.87842 2.21694 10.2498 1.90762C10.3201 1.84894 10.4086 1.81681 10.5 1.81681C10.5914 1.81681 10.6799 1.84894 10.7502 1.90762C11.1216 2.21694 11.4204 2.60452 11.6252 3.04275C11.8301 3.48098 11.936 3.95908 11.9354 4.443V8.57778L19.3775 12.3061L19.2577 12.9063L11.9354 11.9494V13.3126L11.4761 18.1437L14.8061 19.5737Z" fill="#949494"/>
</svg>
