<svg width="26" height="32" viewBox="0 0 26 32" fill="none" xmlns="http://www.w3.org/2000/svg">
<path d="M12.6533 21.0854C12.4069 21.086 12.1681 20.9807 11.9784 20.7878L5.65179 14.3168C5.43646 14.0971 5.30104 13.7814 5.27534 13.4392C5.24963 13.097 5.33574 12.7562 5.51472 12.4919C5.6937 12.2276 5.95089 12.0614 6.22971 12.0299C6.50853 11.9983 6.78614 12.104 7.00148 12.3237L12.6533 18.1217L18.3051 12.5308C18.4129 12.4233 18.537 12.343 18.6703 12.2945C18.8035 12.2461 18.9432 12.2304 19.0813 12.2485C19.2195 12.2665 19.3534 12.3179 19.4753 12.3997C19.5973 12.4814 19.7048 12.592 19.7918 12.7249C19.8884 12.858 19.9615 13.0141 20.0067 13.1835C20.0518 13.3528 20.0679 13.5318 20.0541 13.7092C20.0402 13.8866 19.9967 14.0586 19.9261 14.2143C19.8556 14.3701 19.7596 14.5063 19.6442 14.6144L13.3176 20.8654C13.1224 21.0279 12.8885 21.1053 12.6533 21.0854Z" fill="#6E6E6D"/>
</svg>
