<svg width="23" height="21" viewBox="0 0 23 21" fill="none" xmlns="http://www.w3.org/2000/svg">
<path d="M22.9983 10.4054C23.0234 11.7716 22.7757 13.1294 22.2692 14.4011C21.7627 15.6729 21.0074 16.8337 20.0464 17.8173C18.1055 19.8039 15.4446 20.9481 12.649 20.9983C11.2647 21.0231 9.88906 20.7786 8.60055 20.2787C7.31203 19.7788 6.13589 19.0334 5.13928 18.0848C3.12653 16.1692 1.96722 13.5429 1.91639 10.7837L1.62891 11.0674C1.54237 11.157 1.43829 11.2284 1.32299 11.2771C1.20769 11.3259 1.08356 11.351 0.958123 11.351C0.832687 11.351 0.708557 11.3259 0.593254 11.2771C0.477951 11.2284 0.373877 11.157 0.287336 11.0674C0.196535 10.982 0.124248 10.8793 0.0748577 10.7655C0.025467 10.6517 0 10.5292 0 10.4054C0 10.2816 0.025467 10.159 0.0748577 10.0452C0.124248 9.93144 0.196535 9.82872 0.287336 9.74331L2.20387 7.85172C2.29041 7.7621 2.39448 7.69075 2.50979 7.642C2.62509 7.59325 2.74922 7.56812 2.87466 7.56812C3.00009 7.56812 3.12422 7.59325 3.23953 7.642C3.35483 7.69075 3.4589 7.7621 3.54544 7.85172L5.46198 9.74331C5.55278 9.82872 5.62506 9.93144 5.67446 10.0452C5.72385 10.159 5.74931 10.2816 5.74931 10.4054C5.74931 10.5292 5.72385 10.6517 5.67446 10.7655C5.62506 10.8793 5.55278 10.982 5.46198 11.0674C5.37765 11.1598 5.274 11.2331 5.15818 11.2821C5.04236 11.331 4.91715 11.3546 4.79119 11.3512C4.66523 11.3546 4.54002 11.331 4.4242 11.2821C4.30838 11.2331 4.20473 11.1598 4.1204 11.0674L3.83292 10.7837C3.90799 12.4491 4.47689 14.0561 5.46903 15.4053C6.46116 16.7545 7.83284 17.7864 9.41386 18.3731C10.9949 18.9597 12.7156 19.0752 14.3626 18.7053C16.0095 18.3354 17.5102 17.4963 18.6783 16.2921C19.8464 15.088 20.6305 13.5718 20.9334 11.9318C21.2363 10.2917 21.0446 8.59997 20.382 7.06649C19.7195 5.53302 18.6153 4.2253 17.2066 3.30564C15.7978 2.38598 14.1464 1.89485 12.4573 1.8932C12.3295 1.90079 12.2015 1.88152 12.0817 1.83667C11.962 1.79182 11.8532 1.72242 11.7627 1.63303C11.6721 1.54365 11.6018 1.43632 11.5563 1.31813C11.5109 1.19994 11.4914 1.07359 11.4991 0.947406C11.4914 0.821225 11.5109 0.694869 11.5563 0.576682C11.6018 0.458496 11.6721 0.351166 11.7627 0.261781C11.8532 0.172396 11.962 0.102988 12.0817 0.0581407C12.2015 0.013293 12.3295 -0.00597446 12.4573 0.00161048C13.8427 -0.00238476 15.2152 0.263989 16.4959 0.785412C17.7767 1.30683 18.9403 2.07302 19.9199 3.03989C20.8995 4.00677 21.6758 5.15525 22.2041 6.4193C22.7324 7.68334 23.0023 9.038 22.9983 10.4054ZM7.66599 15.1343V10.4054C7.65831 10.2792 7.67783 10.1528 7.72327 10.0346C7.7687 9.91645 7.83903 9.80912 7.92959 9.71974C8.02015 9.63035 8.1289 9.56095 8.24864 9.5161C8.36839 9.47125 8.49641 9.45198 8.62426 9.45957V8.51377C8.62426 7.51041 9.0281 6.54814 9.74694 5.83866C10.4658 5.12917 11.4407 4.73059 12.4573 4.73059C13.4739 4.73059 14.4489 5.12917 15.1677 5.83866C15.8865 6.54814 16.2904 7.51041 16.2904 8.51377V9.45957C16.4182 9.45198 16.5463 9.47125 16.666 9.5161C16.7857 9.56095 16.8945 9.63035 16.9851 9.71974C17.0756 9.80912 17.1459 9.91645 17.1914 10.0346C17.2368 10.1528 17.2563 10.2792 17.2487 10.4054V15.1343C17.2563 15.2605 17.2368 15.3869 17.1914 15.5051C17.1459 15.6233 17.0756 15.7306 16.9851 15.82C16.8945 15.9094 16.7857 15.9788 16.666 16.0236C16.5463 16.0685 16.4182 16.0877 16.2904 16.0801H8.62426C8.49641 16.0877 8.36839 16.0685 8.24864 16.0236C8.1289 15.9788 8.02015 15.9094 7.92959 15.82C7.83903 15.7306 7.7687 15.6233 7.72327 15.5051C7.67783 15.3869 7.65831 15.2605 7.66599 15.1343ZM15.3321 11.3512H9.58252V14.1885H15.3321V11.3512ZM10.5408 9.45957H14.3739V8.51377C14.3739 8.01209 14.1719 7.53096 13.8125 7.17622C13.4531 6.82147 12.9656 6.62218 12.4573 6.62218C11.949 6.62218 11.4615 6.82147 11.1021 7.17622C10.7427 7.53096 10.5408 8.01209 10.5408 8.51377V9.45957Z" fill="#949494"/>
</svg>
