<svg width="22" height="23" viewBox="0 0 22 23" fill="none" xmlns="http://www.w3.org/2000/svg">
<path d="M8.46057 13.5219C8.46057 14.4887 9.20663 15.2661 10.1218 15.2661H11.9919C12.7877 15.2661 13.4343 14.5884 13.4343 13.7412C13.4343 12.8342 13.0364 12.5053 12.4495 12.296L9.45531 11.2494C8.86842 11.0401 8.47053 10.7212 8.47053 9.80425C8.47053 8.96701 9.1171 8.2793 9.91289 8.2793H11.783C12.6982 8.2793 13.4442 9.05672 13.4442 10.0235" stroke="#949494" stroke-width="2" stroke-linecap="round" stroke-linejoin="round"/>
<path d="M10.9474 7.29199V16.2622" stroke="#949494" stroke-width="2" stroke-linecap="round" stroke-linejoin="round"/>
<path d="M20.8948 11.7775C20.8948 17.2792 16.4384 21.7444 10.9474 21.7444C5.45644 21.7444 1 17.2792 1 11.7775C1 6.27573 5.45644 1.81055 10.9474 1.81055" stroke="#949494" stroke-width="2" stroke-linecap="round" stroke-linejoin="round"/>
<path d="M20.8948 5.79732V1.81055H16.9158" stroke="#949494" stroke-width="2" stroke-linecap="round" stroke-linejoin="round"/>
<path d="M15.9211 6.79401L20.8949 1.81055" stroke="#949494" stroke-width="2" stroke-linecap="round" stroke-linejoin="round"/>
</svg>
