<svg width="29" height="31" viewBox="0 0 29 31" fill="none" xmlns="http://www.w3.org/2000/svg">
<g filter="url(#filter0_d_587_6585)">
<path d="M20.0268 16.6104H8.9749C7.45194 16.6104 6.21191 15.3679 6.21191 13.842V2.7684C6.21191 1.24246 7.45194 0 8.9749 0H20.0268C21.5498 0 22.7898 1.24246 22.7898 2.7684V13.842C22.7898 15.3679 21.5498 16.6104 20.0268 16.6104ZM8.9749 1.10736C8.0609 1.10736 7.31711 1.85261 7.31711 2.7684V13.842C7.31711 14.7578 8.0609 15.503 8.9749 15.503H20.0268C20.9408 15.503 21.6846 14.7578 21.6846 13.842V2.7684C21.6846 1.85261 20.9408 1.10736 20.0268 1.10736H8.9749Z" fill="#949494"/>
<path d="M24.9419 21.3456L22.7315 16.9162C22.5955 16.6426 22.2629 16.5319 21.9899 16.6681C21.7169 16.8043 21.6064 17.1376 21.7423 17.4111L21.8948 17.7168H7.10515L7.25767 17.4111C7.39361 17.1376 7.28309 16.8054 7.01011 16.6681C6.73712 16.5308 6.40556 16.6426 6.26852 16.9162L4.05813 21.3456C3.9222 21.6191 4.03271 21.9513 4.3057 22.0886C4.38527 22.1285 4.46927 22.1473 4.55216 22.1473C4.75441 22.1473 4.95002 22.0355 5.04728 21.8406L5.44736 21.0389H23.5526L23.9527 21.8406C24.05 22.0344 24.2445 22.1473 24.4478 22.1473C24.5307 22.1473 24.6147 22.1285 24.6943 22.0886C24.9673 21.9524 25.0778 21.6191 24.9419 21.3456ZM6.00106 19.9326L6.55366 18.8252H22.4485L23.0011 19.9326H6.00106Z" fill="#949494"/>
<path d="M10.0802 14.3958C9.16616 14.3958 8.42236 13.6506 8.42236 12.7348C8.42236 11.819 9.16616 11.0737 10.0802 11.0737C10.9941 11.0737 11.7379 11.819 11.7379 12.7348C11.7379 13.6506 10.9941 14.3958 10.0802 14.3958ZM10.0802 12.1811C9.77512 12.1811 9.52756 12.4291 9.52756 12.7348C9.52756 13.0404 9.77512 13.2885 10.0802 13.2885C10.3852 13.2885 10.6327 13.0404 10.6327 12.7348C10.6327 12.4291 10.3852 12.1811 10.0802 12.1811Z" fill="#949494"/>
<path d="M18.922 14.3958C18.008 14.3958 17.2642 13.6506 17.2642 12.7348C17.2642 11.819 18.008 11.0737 18.922 11.0737C19.8359 11.0737 20.5797 11.819 20.5797 12.7348C20.5797 13.6506 19.8359 14.3958 18.922 14.3958ZM18.922 12.1811C18.6169 12.1811 18.3694 12.4291 18.3694 12.7348C18.3694 13.0404 18.6169 13.2885 18.922 13.2885C19.227 13.2885 19.4745 13.0404 19.4745 12.7348C19.4745 12.4291 19.227 12.1811 18.922 12.1811Z" fill="#949494"/>
<path d="M17.8166 3.3222H11.1854C10.8804 3.3222 10.6328 3.07416 10.6328 2.76852C10.6328 2.46289 10.8804 2.21484 11.1854 2.21484H17.8166C18.1216 2.21484 18.3692 2.46289 18.3692 2.76852C18.3692 3.07416 18.1216 3.3222 17.8166 3.3222Z" fill="#949494"/>
<path d="M20.0269 4.4292H8.97496C8.66993 4.4292 8.42236 4.67725 8.42236 4.98288V9.41232C8.42236 9.71795 8.66993 9.966 8.97496 9.966H20.0269C20.3319 9.966 20.5795 9.71795 20.5795 9.41232V4.98288C20.5795 4.67725 20.3319 4.4292 20.0269 4.4292ZM9.52756 5.53656H13.9483V8.85864H9.52756V5.53656ZM19.4743 8.85864H15.0535V5.53656H19.4743V8.85864Z" fill="#949494"/>
</g>
<defs>
<filter id="filter0_d_587_6585" x="0" y="0" width="29" height="30.1475" filterUnits="userSpaceOnUse" color-interpolation-filters="sRGB">
<feFlood flood-opacity="0" result="BackgroundImageFix"/>
<feColorMatrix in="SourceAlpha" type="matrix" values="0 0 0 0 0 0 0 0 0 0 0 0 0 0 0 0 0 0 127 0" result="hardAlpha"/>
<feOffset dy="4"/>
<feGaussianBlur stdDeviation="2"/>
<feComposite in2="hardAlpha" operator="out"/>
<feColorMatrix type="matrix" values="0 0 0 0 0 0 0 0 0 0 0 0 0 0 0 0 0 0 0.25 0"/>
<feBlend mode="normal" in2="BackgroundImageFix" result="effect1_dropShadow_587_6585"/>
<feBlend mode="normal" in="SourceGraphic" in2="effect1_dropShadow_587_6585" result="shape"/>
</filter>
</defs>
</svg>
