<svg width="23" height="23" viewBox="0 0 23 23" fill="none" xmlns="http://www.w3.org/2000/svg">
<path d="M14.0605 1.42508C14.1089 1.24444 14.2271 1.09041 14.3889 0.996787C14.5508 0.903168 14.7433 0.877621 14.924 0.925754C16.6378 1.3866 18.2004 2.28972 19.4554 3.54463C20.7103 4.79955 21.6134 6.36219 22.0742 8.07603C22.0981 8.16551 22.1042 8.25882 22.092 8.35064C22.0799 8.44246 22.0498 8.53098 22.0034 8.61116C21.957 8.69134 21.8953 8.7616 21.8218 8.81793C21.7483 8.87426 21.6644 8.91556 21.5749 8.93947C21.4854 8.96338 21.3921 8.96942 21.3003 8.95727C21.2085 8.94511 21.12 8.91499 21.0398 8.86863C20.9596 8.82226 20.8893 8.76055 20.833 8.68703C20.7767 8.61351 20.7354 8.52962 20.7115 8.44014C20.315 6.96567 19.538 5.62128 18.4583 4.54164C17.3787 3.462 16.0343 2.68501 14.5598 2.28852C14.3791 2.24023 14.225 2.12213 14.1314 1.96021C14.0377 1.79828 14.0122 1.60579 14.0605 1.42508ZM13.5861 5.9226C14.4229 6.14758 15.186 6.58853 15.7987 7.20128C16.4115 7.81402 16.8524 8.57704 17.0774 9.41388C17.1257 9.59453 17.2438 9.74858 17.4057 9.84216C17.5676 9.93575 17.7601 9.9612 17.9408 9.91293C18.1214 9.86466 18.2755 9.74661 18.3692 9.58475C18.4628 9.42289 18.4884 9.23045 18.4402 9.04977C18.1508 7.97358 17.5837 6.99232 16.7957 6.20431C16.0077 5.4163 15.0264 4.8492 13.9502 4.55983C13.7695 4.51154 13.577 4.53703 13.4151 4.63067C13.2532 4.72431 13.1351 4.87844 13.0868 5.05916C13.0385 5.23987 13.064 5.43237 13.1576 5.59429C13.2513 5.75622 13.4054 5.87431 13.5861 5.9226ZM22.9882 17.4554C22.7912 18.9868 22.0435 20.3941 20.8846 21.4145C19.7258 22.4348 18.2352 22.9984 16.6911 23C7.48764 23 0 15.5123 0 6.30886C0.00156299 4.76483 0.565164 3.27418 1.58552 2.11536C2.60588 0.956528 4.01321 0.208785 5.54462 0.0118047C5.89815 -0.0307232 6.25595 0.0423324 6.56452 0.220047C6.87308 0.397762 7.11583 0.670586 7.25645 0.997721L9.61799 6.5079C9.7252 6.75728 9.76892 7.02934 9.74524 7.29975C9.72157 7.57016 9.63123 7.83048 9.48231 8.05743L7.52689 11.0453C7.50479 11.0774 7.49137 11.1147 7.48793 11.1536C7.48449 11.1924 7.49115 11.2315 7.50727 11.267C8.41462 13.118 9.91543 14.6121 11.7705 15.5111C11.8062 15.5271 11.8455 15.5335 11.8845 15.5298C11.9235 15.5261 11.9608 15.5123 11.9928 15.4897L14.9356 13.5274C15.1631 13.3751 15.4252 13.2822 15.6979 13.2571C15.9706 13.2321 16.2453 13.2757 16.4968 13.3841L22.0022 15.7435C22.3293 15.8841 22.6022 16.1268 22.7799 16.4354C22.9577 16.744 23.0307 17.1018 22.9882 17.4554ZM21.5887 17.2786C21.5939 17.2288 21.5829 17.1786 21.5573 17.1356C21.5316 17.0926 21.4928 17.059 21.4465 17.04L15.9412 14.6805C15.9052 14.6651 15.866 14.6589 15.827 14.6625C15.7881 14.6661 15.7506 14.6793 15.7181 14.701L12.7755 16.6633C12.5391 16.8215 12.2657 16.9155 11.982 16.9362C11.6983 16.9569 11.4141 16.9035 11.1573 16.7813C9.01755 15.7444 7.28642 14.0211 6.23978 11.8861C6.11705 11.6308 6.06239 11.3481 6.08112 11.0654C6.09984 10.7827 6.19131 10.5097 6.34665 10.2728L8.30206 7.2849C8.32336 7.25246 8.33627 7.21524 8.33966 7.17657C8.34304 7.13791 8.33679 7.09902 8.32146 7.06336L5.96004 1.55341C5.9425 1.51145 5.91313 1.4755 5.8755 1.44996C5.83787 1.42441 5.79361 1.41038 5.74814 1.40959C5.73919 1.40959 5.73026 1.41017 5.72139 1.41131C4.53053 1.56467 3.43622 2.14632 2.6429 3.0476C1.84958 3.94889 1.41151 5.10816 1.41052 6.30886C1.41508 10.3601 3.02647 14.2442 5.89115 17.1088C8.75583 19.9735 12.6399 21.5849 16.6911 21.5895C17.8918 21.5885 19.0511 21.1504 19.9524 20.3571C20.8537 19.5638 21.4353 18.4695 21.5887 17.2786Z" fill="#949494"/>
</svg>
