<svg width="18" height="21" viewBox="0 0 18 21" fill="none" xmlns="http://www.w3.org/2000/svg">
<path d="M12.1004 12.1275C10.993 12.1275 10.4605 12.7461 8.64316 12.7461C6.82578 12.7461 6.29716 12.1275 5.18589 12.1275C2.32285 12.1275 0 14.4549 0 17.3236V18.3133C0 19.3378 0.829589 20.169 1.8521 20.169H15.4342C16.4567 20.169 17.2863 19.3378 17.2863 18.3133V17.3236C17.2863 14.4549 14.9635 12.1275 12.1004 12.1275ZM15.4342 18.3133H1.8521V17.3236C1.8521 15.4833 3.34922 13.9832 5.18589 13.9832C5.74924 13.9832 6.66372 14.6018 8.64316 14.6018C10.638 14.6018 11.5332 13.9832 12.1004 13.9832C13.9371 13.9832 15.4342 15.4833 15.4342 17.3236V18.3133ZM8.64316 11.5089C11.7107 11.5089 14.1995 9.01528 14.1995 5.94172C14.1995 2.86816 11.7107 0.374512 8.64316 0.374512C5.57561 0.374512 3.08684 2.86816 3.08684 5.94172C3.08684 9.01528 5.57561 11.5089 8.64316 11.5089ZM8.64316 2.23025C10.6843 2.23025 12.3474 3.89654 12.3474 5.94172C12.3474 7.98689 10.6843 9.65319 8.64316 9.65319C6.60198 9.65319 4.93895 7.98689 4.93895 5.94172C4.93895 3.89654 6.60198 2.23025 8.64316 2.23025Z" fill="#949494"/>
</svg>
