<svg width="10" height="16" viewBox="0 0 10 16" fill="none" xmlns="http://www.w3.org/2000/svg">
<path d="M9.04328 7.93204C9.04387 7.68518 8.93876 7.44595 8.7462 7.25587L2.28787 0.916822C2.06862 0.701066 1.75357 0.565384 1.41202 0.539627C1.07047 0.513869 0.730397 0.600146 0.466617 0.779476C0.202837 0.958806 0.0369562 1.2165 0.00546575 1.49587C-0.0260247 1.77524 0.0794546 2.0534 0.2987 2.26915L6.08537 7.93204L0.505368 13.5949C0.398075 13.703 0.317951 13.8273 0.269601 13.9608C0.221252 14.0943 0.205631 14.2343 0.223636 14.3727C0.24164 14.5111 0.292915 14.6453 0.374515 14.7675C0.456115 14.8896 0.566429 14.9974 0.699118 15.0846C0.831929 15.1814 0.987738 15.2546 1.15678 15.2998C1.32583 15.3451 1.50447 15.3612 1.68151 15.3473C1.85855 15.3334 2.03017 15.2898 2.18563 15.2191C2.3411 15.1485 2.47704 15.0523 2.58495 14.9367L8.8237 8.59764C8.98583 8.40209 9.06314 8.16774 9.04328 7.93204Z" fill="#6E6E6D"/>
</svg>
