<svg width="20" height="20" viewBox="0 0 20 20" fill="none" xmlns="http://www.w3.org/2000/svg">
<path d="M19.6555 7.98059H18.8561V7.9394H9.92426V11.9091H15.5329C14.7147 14.22 12.516 15.8788 9.92426 15.8788C6.63585 15.8788 3.9697 13.2127 3.9697 9.92426C3.9697 6.63585 6.63585 3.9697 9.92426 3.9697C11.4422 3.9697 12.8231 4.54233 13.8746 5.47769L16.6817 2.67062C14.9092 1.01872 12.5383 0 9.92426 0C4.44359 0 0 4.44359 0 9.92426C0 15.4049 4.44359 19.8485 9.92426 19.8485C15.4049 19.8485 19.8485 15.4049 19.8485 9.92426C19.8485 9.25883 19.78 8.60929 19.6555 7.98059Z" fill="#FFC107"/>
<path d="M1.14429 5.30501L4.4049 7.69626C5.28717 5.51193 7.42386 3.9697 9.92428 3.9697C11.4422 3.9697 12.8232 4.54233 13.8746 5.47769L16.6817 2.67062C14.9092 1.01872 12.5383 0 9.92428 0C6.11237 0 2.8066 2.15207 1.14429 5.30501Z" fill="#FF3D00"/>
<path d="M9.9243 19.8485C12.4877 19.8485 14.817 18.8675 16.578 17.2722L13.5065 14.673C12.5101 15.4278 11.2715 15.8788 9.9243 15.8788C7.343 15.8788 5.15123 14.2329 4.32553 11.9359L1.08923 14.4294C2.7317 17.6434 6.06724 19.8485 9.9243 19.8485Z" fill="#4CAF50"/>
<path d="M19.6555 7.98064H18.8561V7.93945H9.92432V11.9092H15.533C15.14 13.0192 14.426 13.9764 13.505 14.6736C13.5055 14.6731 13.506 14.6731 13.5065 14.6726L16.578 17.2717C16.3607 17.4692 19.8486 14.8864 19.8486 9.9243C19.8486 9.25888 19.7801 8.60934 19.6555 7.98064Z" fill="#1976D2"/>
</svg>
