<svg width="10" height="16" viewBox="0 0 10 16" fill="none" xmlns="http://www.w3.org/2000/svg">
<path d="M0.00359121 7.93204C0.0030009 7.68518 0.10811 7.44595 0.300673 7.25587L6.75901 0.916822C6.97825 0.701066 7.29331 0.565384 7.63486 0.539627C7.97641 0.513869 8.31648 0.600146 8.58026 0.779476C8.84404 0.958806 9.00992 1.2165 9.04141 1.49587C9.0729 1.77524 8.96742 2.0534 8.74817 2.26915L2.96151 7.93204L8.54151 13.5949C8.6488 13.703 8.72892 13.8273 8.77727 13.9608C8.82562 14.0943 8.84124 14.2343 8.82324 14.3727C8.80523 14.5111 8.75396 14.6453 8.67236 14.7675C8.59076 14.8896 8.48045 14.9974 8.34776 15.0846C8.21495 15.1814 8.05914 15.2546 7.89009 15.2998C7.72105 15.3451 7.54241 15.3612 7.36537 15.3473C7.18833 15.3334 7.0167 15.2898 6.86124 15.2191C6.70578 15.1485 6.56984 15.0523 6.46192 14.9367L0.223175 8.59764C0.0610491 8.40209 -0.0162633 8.16774 0.00359121 7.93204Z" fill="#6E6E6D"/>
</svg>
