<svg width="22" height="22" viewBox="0 0 22 22" fill="none" xmlns="http://www.w3.org/2000/svg">
<path d="M6.125 12.0801C6.34751 12.0801 6.56501 12.1462 6.75002 12.2701C6.93502 12.3939 7.07922 12.57 7.16437 12.7759C7.24951 12.9819 7.27179 13.2085 7.22838 13.4272C7.18498 13.6459 7.07783 13.8467 6.9205 14.0043C6.76316 14.162 6.56271 14.2693 6.34448 14.3128C6.12625 14.3563 5.90005 14.334 5.69448 14.2487C5.48892 14.1634 5.31321 14.0189 5.1896 13.8335C5.06598 13.6482 5 13.4302 5 13.2073C5 12.9083 5.11853 12.6216 5.32951 12.4102C5.54048 12.1988 5.82663 12.0801 6.125 12.0801ZM6.125 10.5771C5.60583 10.5771 5.09831 10.7314 4.66663 11.0204C4.23495 11.3094 3.8985 11.7202 3.69982 12.2008C3.50114 12.6814 3.44915 13.2102 3.55044 13.7204C3.65173 14.2306 3.90173 14.6993 4.26885 15.0671C4.63596 15.4349 5.10369 15.6854 5.61289 15.7869C6.12209 15.8884 6.64989 15.8363 7.12955 15.6372C7.6092 15.4382 8.01917 15.1011 8.30761 14.6685C8.59605 14.236 8.75 13.7275 8.75 13.2073C8.75 12.5097 8.47344 11.8407 7.98116 11.3475C7.48887 10.8543 6.82119 10.5771 6.125 10.5771Z" fill="#949494"/>
<path d="M17.75 9.32814H11.75C11.3522 9.32814 10.9706 9.48649 10.6893 9.76834C10.408 10.0502 10.25 10.4325 10.25 10.8311V15.3399H2V6.77314L11 1.91864L20.3975 6.98355L21.1025 5.66096L11.3525 0.400673C11.244 0.342779 11.1229 0.3125 11 0.3125C10.8771 0.3125 10.756 0.342779 10.6475 0.400673L0.8975 5.66096C0.777741 5.72486 0.677523 5.82011 0.607523 5.93656C0.537523 6.05302 0.500362 6.18631 0.5 6.32226V21.3517H2V16.8428H20V21.3517H21.5V13.0855C21.5 12.089 21.1049 11.1333 20.4016 10.4286C19.6984 9.724 18.7446 9.32814 17.75 9.32814ZM11.75 15.3399V10.8311H17.75C18.3467 10.8311 18.919 11.0686 19.341 11.4914C19.7629 11.9142 20 12.4876 20 13.0855V15.3399H11.75Z" fill="#949494"/>
</svg>
