<svg width="53" height="47" viewBox="0 0 53 47" fill="none" xmlns="http://www.w3.org/2000/svg">
<g filter="url(#filter0_d_715_2)">
<path d="M7.73699 39C6.74585 39 5.7953 38.7432 5.09445 38.2861C4.39361 37.829 3.99988 37.209 3.99988 36.5625L3.99988 2.4375C3.99988 1.79103 4.39361 1.17105 5.09445 0.713925C5.7953 0.256805 6.74585 0 7.73699 0C8.72813 0 9.67868 0.256805 10.3795 0.713925C11.0804 1.17105 11.4741 1.79103 11.4741 2.4375L11.4741 36.5625C11.4741 37.209 11.0804 37.829 10.3795 38.2861C9.67868 38.7432 8.72813 39 7.73699 39ZM26.4225 39C25.4314 39 24.4809 38.7432 23.78 38.2861C23.0792 37.829 22.6854 37.209 22.6854 36.5625V2.4375C22.6854 1.79103 23.0792 1.17105 23.78 0.713925C24.4809 0.256805 25.4314 0 26.4225 0C27.4137 0 28.3642 0.256805 29.0651 0.713925C29.7659 1.17105 30.1597 1.79103 30.1597 2.4375V36.5625C30.1597 37.209 29.7659 37.829 29.0651 38.2861C28.3642 38.7432 27.4137 39 26.4225 39ZM45.1081 39C44.117 39 43.1664 38.7432 42.4656 38.2861C41.7647 37.829 41.371 37.209 41.371 36.5625V2.4375C41.371 1.79103 41.7647 1.17105 42.4656 0.713925C43.1664 0.256805 44.117 0 45.1081 0C46.0992 0 47.0498 0.256805 47.7506 0.713925C48.4515 1.17105 48.8452 1.79103 48.8452 2.4375V36.5625C48.8452 37.209 48.4515 37.829 47.7506 38.2861C47.0498 38.7432 46.0992 39 45.1081 39Z" fill="white"/>
</g>
<defs>
<filter id="filter0_d_715_2" x="-0.00012207" y="0" width="52.8453" height="47" filterUnits="userSpaceOnUse" color-interpolation-filters="sRGB">
<feFlood flood-opacity="0" result="BackgroundImageFix"/>
<feColorMatrix in="SourceAlpha" type="matrix" values="0 0 0 0 0 0 0 0 0 0 0 0 0 0 0 0 0 0 127 0" result="hardAlpha"/>
<feOffset dy="4"/>
<feGaussianBlur stdDeviation="2"/>
<feComposite in2="hardAlpha" operator="out"/>
<feColorMatrix type="matrix" values="0 0 0 0 0 0 0 0 0 0 0 0 0 0 0 0 0 0 0.25 0"/>
<feBlend mode="normal" in2="BackgroundImageFix" result="effect1_dropShadow_715_2"/>
<feBlend mode="normal" in="SourceGraphic" in2="effect1_dropShadow_715_2" result="shape"/>
</filter>
</defs>
</svg>
