<svg width="21" height="21" viewBox="0 0 21 21" fill="none" xmlns="http://www.w3.org/2000/svg">
<path d="M10.1053 20.2106C15.6863 20.2106 20.2106 15.6863 20.2106 10.1053C20.2106 4.52431 15.6863 0 10.1053 0C4.52431 0 0 4.52431 0 10.1053C0 15.6863 4.52431 20.2106 10.1053 20.2106Z" fill="#3C5A99"/>
<path d="M10.8909 15.158V10.5553H12.4422L12.6751 8.75333H10.8909V7.60662C10.8909 7.08556 11.0349 6.73227 11.781 6.73227H12.7264V5.12568C12.5626 5.10397 11.9981 5.05463 11.3409 5.05463C9.96914 5.05463 9.02966 5.89147 9.02966 7.42898V8.75531H7.48425V10.5573H9.02966V15.158H10.8909Z" fill="white"/>
</svg>
