<svg width="50" height="38" viewBox="0 0 50 38" fill="none" xmlns="http://www.w3.org/2000/svg">
<path d="M0 3.62987C0 2.80729 0.326131 2.0184 0.906647 1.43674C1.48716 0.855091 2.27451 0.52832 3.09548 0.52832H46.4322C47.2532 0.52832 48.0406 0.855091 48.6211 1.43674C49.2016 2.0184 49.5277 2.80729 49.5277 3.62987C49.5277 4.45245 49.2016 5.24135 48.6211 5.823C48.0406 6.40465 47.2532 6.73142 46.4322 6.73142H3.09548C2.27451 6.73142 1.48716 6.40465 0.906647 5.823C0.326131 5.24135 0 4.45245 0 3.62987ZM0 19.1376C0 18.315 0.326131 17.5262 0.906647 16.9445C1.48716 16.3628 2.27451 16.0361 3.09548 16.0361H46.4322C47.2532 16.0361 48.0406 16.3628 48.6211 16.9445C49.2016 17.5262 49.5277 18.315 49.5277 19.1376C49.5277 19.9602 49.2016 20.7491 48.6211 21.3308C48.0406 21.9124 47.2532 22.2392 46.4322 22.2392H3.09548C2.27451 22.2392 1.48716 21.9124 0.906647 21.3308C0.326131 20.7491 0 19.9602 0 19.1376ZM0 34.6454C0 33.8228 0.326131 33.0339 0.906647 32.4523C1.48716 31.8706 2.27451 31.5438 3.09548 31.5438H46.4322C47.2532 31.5438 48.0406 31.8706 48.6211 32.4523C49.2016 33.0339 49.5277 33.8228 49.5277 34.6454C49.5277 35.468 49.2016 36.2569 48.6211 36.8385C48.0406 37.4202 47.2532 37.7469 46.4322 37.7469H3.09548C2.27451 37.7469 1.48716 37.4202 0.906647 36.8385C0.326131 36.2569 0 35.468 0 34.6454Z" fill="white"/>
</svg>
