<svg width="28" height="29" viewBox="0 0 28 29" fill="none" xmlns="http://www.w3.org/2000/svg">
<path d="M23.625 9.64404H25.375V13.1509H23.625V9.64404Z" fill="#949494"/>
<path d="M2.625 9.64404H4.375V13.1509H2.625V9.64404Z" fill="#949494"/>
<path d="M17.5 17.5342H19.25V19.2876H17.5V17.5342Z" fill="#949494"/>
<path d="M8.75 17.5342H10.5V19.2876H8.75V17.5342Z" fill="#949494"/>
<path d="M18.375 3.50684H9.625C8.4651 3.5082 7.35309 3.97048 6.53292 4.79227C5.71274 5.61405 5.25137 6.72824 5.25 7.89041V20.1644C5.25053 20.6293 5.43508 21.075 5.76315 21.4037C6.09122 21.7324 6.53603 21.9173 7 21.9179V24.548H8.75V21.9179H19.25V24.548H21V21.9179C21.4639 21.9172 21.9087 21.7323 22.2367 21.4036C22.5648 21.0749 22.7494 20.6293 22.75 20.1644V7.89041C22.7486 6.72824 22.2873 5.61405 21.4671 4.79227C20.6469 3.97048 19.5349 3.5082 18.375 3.50684ZM21 8.76713L21.0008 14.0274H7V8.76713H21ZM9.625 5.26027H18.375C18.9161 5.26193 19.4434 5.43137 19.8845 5.74532C20.3257 6.05927 20.659 6.50234 20.8387 7.0137H7.16126C7.34102 6.50234 7.67435 6.05927 8.11548 5.74532C8.55661 5.43137 9.08392 5.26193 9.625 5.26027ZM7 20.1644V15.7809H21.0011L21.0018 20.1644H7Z" fill="#949494"/>
</svg>
