<svg width="38" height="40" viewBox="0 0 38 40" fill="none" xmlns="http://www.w3.org/2000/svg">
<rect x="0.5" y="39.5" width="39" height="37" rx="9.5" transform="rotate(-90 0.5 39.5)" fill="white" stroke="#D9D9D9"/>
<path d="M13.503 27.3743L25.2264 27.3743L23.9564 28.6371C23.7724 28.8214 23.6691 29.0714 23.6691 29.3321C23.6691 29.5927 23.7724 29.8427 23.9564 30.0271C24.1403 30.2114 24.3898 30.3149 24.65 30.3149C24.9102 30.3149 25.1597 30.2114 25.3436 30.0271L28.2745 27.0905C28.3661 26.9995 28.4387 26.8912 28.4883 26.7719C28.5379 26.6526 28.5635 26.5247 28.5635 26.3955C28.5635 26.2662 28.5379 26.1383 28.4883 26.019C28.4387 25.8997 28.3661 25.7915 28.2745 25.7005L25.3436 22.7639C25.2528 22.6721 25.1448 22.5993 25.0257 22.5496C24.9067 22.4999 24.779 22.4743 24.65 22.4743C24.521 22.4743 24.3933 22.4999 24.2743 22.5496C24.1552 22.5993 24.0472 22.6721 23.9564 22.7639C23.8648 22.8549 23.7921 22.9631 23.7425 23.0824C23.6929 23.2017 23.6674 23.3296 23.6674 23.4589C23.6674 23.5881 23.6929 23.716 23.7425 23.8353C23.7921 23.9546 23.8648 24.0629 23.9564 24.1539L25.2264 25.4166L13.503 25.4166C13.3028 25.4205 13.1039 25.3848 12.9175 25.3117C12.7311 25.2385 12.5609 25.1293 12.4166 24.9902C12.2724 24.8511 12.1569 24.6849 12.0768 24.5011C11.9966 24.3173 11.9534 24.1195 11.9496 23.9189L11.9496 21.5011C11.9496 21.2415 11.8467 20.9925 11.6635 20.809C11.4803 20.6254 11.2318 20.5223 10.9727 20.5223C10.7136 20.5223 10.4651 20.6254 10.2819 20.809C10.0986 20.9925 9.99572 21.2415 9.99572 21.5011L9.99572 23.9189C9.99955 24.3766 10.0933 24.829 10.2716 25.2503C10.45 25.6716 10.7094 26.0536 11.0351 26.3745C11.3608 26.6953 11.7463 26.9488 12.1698 27.1203C12.5932 27.2919 13.0462 27.3782 13.503 27.3743Z" fill="#6E6E6D"/>
<path d="M13.2097 18.2804C13.3937 18.4647 13.6432 18.5682 13.9033 18.5682C14.1635 18.5682 14.413 18.4647 14.597 18.2804C14.7809 18.096 14.8843 17.846 14.8843 17.5854C14.8843 17.3247 14.7809 17.0747 14.597 16.8904L13.3269 15.6276L25.0504 15.6276C25.2505 15.6237 25.4495 15.6594 25.6359 15.7326C25.8223 15.8057 25.9924 15.915 26.1367 16.054C26.2809 16.1931 26.3964 16.3593 26.4766 16.5431C26.5567 16.7269 26.5999 16.9248 26.6037 17.1253L26.6037 19.5431C26.6037 19.8027 26.7066 20.0517 26.8899 20.2353C27.0731 20.4188 27.3216 20.522 27.5807 20.522C27.8398 20.522 28.0883 20.4188 28.2715 20.2353C28.4547 20.0517 28.5576 19.8027 28.5576 19.5431L28.5576 17.1253C28.5538 16.6677 28.46 16.2153 28.2817 15.794C28.1034 15.3726 27.8439 14.9906 27.5183 14.6698C27.1926 14.3489 26.807 14.0954 26.3836 13.9239C25.9601 13.7523 25.5071 13.666 25.0504 13.6699L13.3269 13.6699L14.597 12.4072C14.6885 12.3162 14.7612 12.2079 14.8108 12.0886C14.8604 11.9693 14.8859 11.8414 14.8859 11.7122C14.8859 11.5829 14.8604 11.455 14.8108 11.3357C14.7612 11.2164 14.6885 11.1082 14.597 11.0172C14.5061 10.9254 14.3981 10.8526 14.279 10.8029C14.16 10.7532 14.0323 10.7276 13.9033 10.7276C13.7744 10.7276 13.6467 10.7532 13.5276 10.8029C13.4086 10.8526 13.3005 10.9254 13.2097 11.0172L10.2788 13.9538C10.1873 14.0448 10.1146 14.153 10.065 14.2723C10.0154 14.3916 9.98986 14.5195 9.98986 14.6488C9.98986 14.778 10.0154 14.9059 10.065 15.0252C10.1146 15.1445 10.1873 15.2528 10.2788 15.3438L13.2097 18.2804Z" fill="#6E6E6D"/>
</svg>
