<svg width="16" height="21" viewBox="0 0 16 21" fill="none" xmlns="http://www.w3.org/2000/svg">
<path d="M7.62794 5.21484C7.07273 5.21484 6.52998 5.37981 6.06834 5.68887C5.6067 5.99793 5.2469 6.43722 5.03443 6.95117C4.82196 7.46513 4.76636 8.03067 4.87468 8.57628C4.983 9.12189 5.25036 9.62306 5.64295 10.0164C6.03554 10.4098 6.53574 10.6777 7.08028 10.7862C7.62482 10.8947 8.18926 10.839 8.70221 10.6261C9.21516 10.4133 9.65358 10.0527 9.96204 9.5902C10.2705 9.12765 10.4351 8.58384 10.4351 8.02755C10.4343 7.28183 10.1383 6.5669 9.61199 6.0396C9.08572 5.5123 8.37219 5.21569 7.62794 5.21484ZM7.62794 9.4339C7.35033 9.4339 7.07896 9.35141 6.84814 9.19688C6.61732 9.04235 6.43742 8.82271 6.33118 8.56573C6.22495 8.30876 6.19715 8.02599 6.25131 7.75318C6.30547 7.48037 6.43915 7.22979 6.63544 7.03311C6.83174 6.83642 7.08184 6.70248 7.35411 6.64822C7.62638 6.59395 7.9086 6.6218 8.16507 6.72825C8.42155 6.83469 8.64076 7.01495 8.79499 7.24622C8.94922 7.47749 9.03154 7.7494 9.03154 8.02755C9.03111 8.4004 8.88309 8.75786 8.61996 9.02151C8.35683 9.28516 8.00006 9.43347 7.62794 9.4339Z" fill="#949494"/>
<path d="M13.0223 2.61845C11.6885 1.28244 9.90814 0.488791 8.02473 0.390686C6.14132 0.292582 4.2884 0.896975 2.82358 2.08722C1.35877 3.27746 0.385902 4.96917 0.092747 6.83585C-0.200408 8.70253 0.20693 10.6119 1.23615 12.1953L6.53943 20.3527C6.65744 20.5342 6.81881 20.6834 7.00889 20.7866C7.19898 20.8898 7.41177 20.9439 7.62798 20.9439C7.8442 20.9439 8.05699 20.8898 8.24707 20.7866C8.43716 20.6834 8.59852 20.5342 8.71654 20.3527L14.02 12.1953C14.975 10.7264 15.397 8.97326 15.2154 7.22968C15.0337 5.48609 14.2594 3.85806 13.0223 2.61845ZM12.844 11.4277L7.62801 19.4505L2.41201 11.4277C0.815417 8.97186 1.15785 5.6854 3.22623 3.61287C3.80427 3.03368 4.49052 2.57424 5.24577 2.26078C6.00103 1.94732 6.81052 1.78599 7.62801 1.78599C8.44549 1.78599 9.25498 1.94732 10.0102 2.26078C10.7655 2.57424 11.4517 3.03368 12.0298 3.61287C14.0982 5.6854 14.4405 8.97186 12.844 11.4277Z" fill="#949494"/>
</svg>
