<svg width="61" height="61" viewBox="0 0 61 61" fill="none" xmlns="http://www.w3.org/2000/svg">
<circle cx="30.0598" cy="30.0598" r="29.5598" fill="white" stroke="#6E6E6D"/>
<path d="M28.4662 32.5848H28.9662V32.0848V24.0988C28.9662 22.6171 30.178 21.4044 31.6544 21.4044H41.2189C44.4647 21.4044 47.0952 24.0386 47.0952 27.2932V40.0709C47.0952 40.6741 46.6008 41.1681 46.0011 41.1681C45.4015 41.1681 44.9071 40.6741 44.9071 40.0709V36.8765V36.3765H44.407H15.7136H15.2136V36.8765V40.0709C15.2136 40.6741 14.7192 41.1681 14.1195 41.1681C13.5198 41.1681 13.0254 40.6741 13.0254 40.0709V19.3072C13.0254 18.7039 13.5198 18.21 14.1195 18.21C14.7192 18.21 15.2136 18.7039 15.2136 19.3072V32.0848V32.5848H15.7136H28.4662ZM26.3721 25.696C26.3721 28.0721 24.459 29.9876 22.0899 29.9876C19.7208 29.9876 17.8076 28.0721 17.8076 25.696C17.8076 23.3199 19.7208 21.4044 22.0899 21.4044C24.459 21.4044 26.3721 23.3199 26.3721 25.696Z" fill="white" stroke="#6E6E6D"/>
</svg>
