<svg width="61" height="61" viewBox="0 0 61 61" fill="none" xmlns="http://www.w3.org/2000/svg">
<circle cx="30.0598" cy="30.0598" r="30.0598" fill="#6E6E6D"/>
<path d="M22.0899 30.7777C24.7361 30.7777 26.8721 28.6374 26.8721 25.986C26.8721 23.3347 24.7361 21.1944 22.0899 21.1944C19.4437 21.1944 17.3076 23.3347 17.3076 25.986C17.3076 28.6374 19.4437 30.7777 22.0899 30.7777ZM41.2189 21.1944H31.6544C29.9009 21.1944 28.4662 22.6319 28.4662 24.3888V32.3749H15.7136V19.5972C15.7136 18.7187 14.9962 18 14.1195 18C13.2427 18 12.5254 18.7187 12.5254 19.5972V40.3609C12.5254 41.2394 13.2427 41.9581 14.1195 41.9581C14.9962 41.9581 15.7136 41.2394 15.7136 40.3609V37.1665H44.407V40.3609C44.407 41.2394 45.1244 41.9581 46.0011 41.9581C46.8779 41.9581 47.5952 41.2394 47.5952 40.3609V27.5832C47.5952 24.0534 44.7418 21.1944 41.2189 21.1944Z" fill="white"/>
</svg>
