<svg width="112" height="61" viewBox="0 0 112 61" fill="none" xmlns="http://www.w3.org/2000/svg">
<g clip-path="url(#clip0_536_8)">
<path fill-rule="evenodd" clip-rule="evenodd" d="M55.9954 45.2661C50.7733 54.1537 41.1133 60.1197 30.0598 60.1197C13.4583 60.1197 0 46.6614 0 30.0598C0 13.4583 13.4583 0 30.0598 0C41.1133 0 50.7733 5.966 55.9954 14.8536C61.2175 5.966 70.8775 0 81.9309 0C98.5325 0 111.991 13.4583 111.991 30.0598C111.991 46.6614 98.5325 60.1197 81.9309 60.1197C70.8775 60.1197 61.2175 54.1537 55.9954 45.2661Z" fill="white"/>
<mask id="mask0_536_8" style="mask-type:luminance" maskUnits="userSpaceOnUse" x="0" y="0" width="112" height="61">
<path fill-rule="evenodd" clip-rule="evenodd" d="M55.9954 45.2661C50.7733 54.1537 41.1133 60.1197 30.0598 60.1197C13.4583 60.1197 0 46.6614 0 30.0598C0 13.4583 13.4583 0 30.0598 0C41.1133 0 50.7733 5.966 55.9954 14.8536C61.2175 5.966 70.8775 0 81.9309 0C98.5325 0 111.991 13.4583 111.991 30.0598C111.991 46.6614 98.5325 60.1197 81.9309 60.1197C70.8775 60.1197 61.2175 54.1537 55.9954 45.2661Z" fill="white"/>
</mask>
<g mask="url(#mask0_536_8)">
<path d="M55.9954 45.2661L56.8576 44.7595L55.9954 43.2922L55.1332 44.7595L55.9954 45.2661ZM55.9954 14.8536L55.1332 15.3601L55.9954 16.8275L56.8576 15.3601L55.9954 14.8536ZM55.1332 44.7595C50.0833 53.3541 40.7443 59.1197 30.0598 59.1197V61.1197C41.4822 61.1197 51.4633 54.9534 56.8576 45.7727L55.1332 44.7595ZM30.0598 59.1197C14.0105 59.1197 1 46.1092 1 30.0598H-1C-1 47.2137 12.906 61.1197 30.0598 61.1197V59.1197ZM1 30.0598C1 14.0105 14.0105 1 30.0598 1V-1C12.906 -1 -1 12.906 -1 30.0598H1ZM30.0598 1C40.7443 1 50.0833 6.76564 55.1332 15.3601L56.8576 14.347C51.4633 5.16635 41.4822 -1 30.0598 -1V1ZM56.8576 15.3601C61.9075 6.76564 71.2465 1 81.9309 1V-1C70.5086 -1 60.5275 5.16635 55.1332 14.347L56.8576 15.3601ZM81.9309 1C97.9803 1 110.991 14.0105 110.991 30.0598H112.991C112.991 12.906 99.0848 -1 81.9309 -1V1ZM110.991 30.0598C110.991 46.1092 97.9803 59.1197 81.9309 59.1197V61.1197C99.0848 61.1197 112.991 47.2137 112.991 30.0598H110.991ZM81.9309 59.1197C71.2465 59.1197 61.9075 53.3541 56.8576 44.7595L55.1332 45.7727C60.5275 54.9534 70.5086 61.1197 81.9309 61.1197V59.1197Z" fill="#6E6E6D"/>
</g>
<path d="M28.4656 36.7201H28.9656V36.2201V28.234C28.9656 26.7523 30.1773 25.5396 31.6538 25.5396H41.2183C44.4641 25.5396 47.0946 28.1739 47.0946 31.4285V44.2061C47.0946 44.8094 46.6002 45.3033 46.0005 45.3033C45.4008 45.3033 44.9064 44.8094 44.9064 44.2061V41.0117V40.5117H44.4064H15.7129H15.2129V41.0117V44.2061C15.2129 44.8094 14.7185 45.3033 14.1189 45.3033C13.5192 45.3033 13.0248 44.8094 13.0248 44.2061V23.4424C13.0248 22.8392 13.5192 22.3452 14.1189 22.3452C14.7185 22.3452 15.2129 22.8392 15.2129 23.4424V36.2201V36.7201H15.7129H28.4656ZM26.3715 29.8313C26.3715 32.2074 24.4584 34.1229 22.0893 34.1229C19.7202 34.1229 17.807 32.2074 17.807 29.8313C17.807 27.4551 19.7202 25.5396 22.0893 25.5396C24.4584 25.5396 26.3715 27.4551 26.3715 29.8313Z" fill="white" stroke="black"/>
<path d="M67.9828 37.2181L63.4347 32.3374C63.1995 32.0572 63.2866 31.6288 63.6181 31.4629L66.0168 30.2628C66.0961 30.2232 66.1843 30.2022 66.2739 30.2021C66.3636 30.202 66.4518 30.2226 66.5313 30.2621L70.8562 32.411L71.0794 32.5219L71.3023 32.4104L77.4719 29.3241L78.2732 28.9233L77.5114 28.4518L68.2401 22.7132C68.0298 22.4343 68.1193 22.0246 68.4424 21.8631L72.373 19.8969C72.4631 19.8518 72.5643 19.831 72.6659 19.8372C72.7676 19.8434 72.8652 19.8762 72.9487 19.9316L72.9972 19.9638L73.0518 19.984L86.125 24.8191L86.3283 24.8942L86.5221 24.7973L92.4106 21.8519C92.4105 21.852 92.4107 21.8519 92.4106 21.8519C93.9484 21.0833 95.6352 20.6484 97.3127 20.7559C99.2438 20.8797 100.067 21.4747 100.38 22.0986C100.694 22.7217 100.681 23.7345 99.6266 25.3514C98.7104 26.7561 97.3533 27.8438 95.8154 28.613L78.4227 37.3126C77.9432 37.5528 77.4125 37.6786 76.874 37.6793L69.0708 37.6899C68.6576 37.6903 68.2632 37.5191 67.9828 37.2181ZM63.7584 44.3474H100.103C100.362 44.3474 100.559 44.5522 100.559 44.7902V46.6756C100.559 46.9136 100.362 47.1184 100.103 47.1184H63.7584C63.4992 47.1184 63.3019 46.9136 63.3019 46.6756V44.7902C63.3019 44.5522 63.4992 44.3474 63.7584 44.3474Z" fill="white"/>
<path d="M72.373 19.8969L68.4424 21.8631C68.1193 22.0246 68.0298 22.4343 68.2401 22.7132L77.5114 28.4518L78.2732 28.9233L77.4719 29.3241L71.3023 32.4104L71.0794 32.5219L70.8562 32.411L66.5313 30.2621C66.4518 30.2226 66.3636 30.202 66.2739 30.2021C66.1843 30.2022 66.0961 30.2232 66.0168 30.2628L63.6181 31.4629C63.2866 31.6288 63.1995 32.0572 63.4347 32.3374L67.9828 37.2181C68.2632 37.5191 68.6576 37.6903 69.0708 37.6899L76.874 37.6793C77.4125 37.6786 77.9432 37.5528 78.4227 37.3126L95.8154 28.613C97.3533 27.8438 98.7104 26.7561 99.6266 25.3514C100.681 23.7345 100.694 22.7217 100.38 22.0986C100.067 21.4747 99.2438 20.8797 97.3127 20.7559C95.6352 20.6484 93.9484 21.0833 92.4106 21.8519M72.373 19.8969L72.1493 19.4497M72.373 19.8969C72.4631 19.8518 72.5643 19.831 72.6659 19.8372C72.7676 19.8434 72.8652 19.8762 72.9487 19.9316L72.9972 19.9638L73.0518 19.984L86.125 24.8191L86.3283 24.8942L86.5221 24.7973L92.4106 21.8519M92.4106 21.8519C92.4107 21.8519 92.4105 21.852 92.4106 21.8519ZM63.7584 44.3474H100.103C100.362 44.3474 100.559 44.5522 100.559 44.7902V46.6756C100.559 46.9136 100.362 47.1184 100.103 47.1184H63.7584C63.4992 47.1184 63.3019 46.9136 63.3019 46.6756V44.7902C63.3019 44.5522 63.4992 44.3474 63.7584 44.3474Z" stroke="#6E6E6D"/>
</g>
<defs>
<clipPath id="clip0_536_8">
<rect width="112" height="61" fill="white"/>
</clipPath>
</defs>
</svg>
