<svg width="112" height="61" viewBox="0 0 112 61" fill="none" xmlns="http://www.w3.org/2000/svg">
<circle cx="81.9307" cy="30.0598" r="30.0598" fill="#6E6E6D"/>
<path d="M100.103 41.961H63.7585C63.2301 41.961 62.802 42.3829 62.802 42.9037V44.7892C62.802 45.3101 63.2301 45.7319 63.7585 45.7319H100.103C100.631 45.7319 101.059 45.3101 101.059 44.7892V42.9037C101.059 42.3829 100.631 41.961 100.103 41.961ZM67.6171 35.6724C67.9925 36.0755 68.5197 36.3041 69.0715 36.3035L76.8747 36.2929C77.4906 36.2921 78.0975 36.1483 78.6465 35.8734L96.0392 27.1738C97.6377 26.3742 99.0705 25.2329 100.045 23.7381C101.14 22.0601 101.259 20.8457 100.827 19.9878C100.396 19.1294 99.3479 18.4989 97.3448 18.3705C95.5604 18.2562 93.7857 18.7193 92.1872 19.5182L86.2986 22.4637L73.2254 17.6287C73.0682 17.5243 72.8856 17.4632 72.6964 17.4517C72.5072 17.4402 72.3184 17.4787 72.1494 17.5633L68.219 19.5294C67.5812 19.8482 67.427 20.6872 67.91 21.2104L77.2484 26.9905L71.0788 30.0768L66.7539 27.9279C66.6049 27.8539 66.4403 27.8154 66.2735 27.8156C66.1066 27.8158 65.9421 27.8547 65.7933 27.9291L63.3944 29.1293C62.7704 29.4416 62.606 30.2559 63.0615 30.7838L67.6171 35.6724Z" fill="white"/>
<circle cx="30.0598" cy="30.0598" r="30.0598" fill="#6E6E6D"/>
<path d="M22.0896 32.7371C24.7358 32.7371 26.8719 30.5969 26.8719 27.9455C26.8719 25.2941 24.7358 23.1539 22.0896 23.1539C19.4435 23.1539 17.3074 25.2941 17.3074 27.9455C17.3074 30.5969 19.4435 32.7371 22.0896 32.7371ZM41.2186 23.1539H31.6541C29.9007 23.1539 28.466 24.5914 28.466 26.3483V34.3343H15.7133V21.5567C15.7133 20.6782 14.996 19.9595 14.1192 19.9595C13.2425 19.9595 12.5251 20.6782 12.5251 21.5567V42.3204C12.5251 43.1988 13.2425 43.9176 14.1192 43.9176C14.996 43.9176 15.7133 43.1988 15.7133 42.3204V39.126H44.4068V42.3204C44.4068 43.1988 45.1241 43.9176 46.0009 43.9176C46.8776 43.9176 47.595 43.1988 47.595 42.3204V29.5427C47.595 26.0129 44.7416 23.1539 41.2186 23.1539Z" fill="white"/>
</svg>
